<?xml version="1.0" encoding="UTF-8" standalone="no"?>
<!-- Created with Inkscape (http://www.inkscape.org/) -->

<svg
        width="210mm"
        height="210mm"
        viewBox="0 0 210 209.99999"
        version="1.1"
        id="svg5"
        xml:space="preserve"
        inkscape:version="1.2.1 (9c6d41e4, 2022-07-14)"
        sodipodi:docname="WeddingWise-210x210mm.svg"
        xmlns:inkscape="http://www.inkscape.org/namespaces/inkscape"
        xmlns:sodipodi="http://sodipodi.sourceforge.net/DTD/sodipodi-0.dtd"
        xmlns="http://www.w3.org/2000/svg"
><sodipodi:namedview
     id="namedview7"
     pagecolor="#505050"
     bordercolor="#eeeeee"
     borderopacity="1"
     inkscape:showpageshadow="0"
     inkscape:pageopacity="0"
     inkscape:pagecheckerboard="0"
     inkscape:deskcolor="#505050"
     inkscape:document-units="mm"
     showgrid="false"
     showborder="true"
     borderlayer="false"
     inkscape:zoom="0.45221029"
     inkscape:cx="605.91279"
     inkscape:cy="548.41742"
     inkscape:window-width="1440"
     inkscape:window-height="900"
     inkscape:window-x="0"
     inkscape:window-y="0"
     inkscape:window-maximized="0"
     inkscape:current-layer="layer1" /><defs
     id="defs2" /><g
     inkscape:label="Layer 1"
     inkscape:groupmode="layer"
     id="layer1"><path
       style="fill:#d69e75;fill-opacity:1;stroke-width:10.4831;stroke-linecap:square"
       d="m 22.904372,132.446 c 0,-0.19158 3.895103,-5.23375 8.655769,-11.20546 C 43.246255,106.58164 49.324624,96.263515 56.25809,79.315436 67.102786,52.806825 70.186412,31.067859 64.112876,23.940874 52.852275,10.727124 23.772985,34.733882 10.84997,67.912683 5.867075,80.705904 3.6264639,92.193093 4.8294781,98.778834 6.4505497,107.65332 11.991821,109.16268 21.731196,103.3826 32.778259,96.826499 45.963397,79.744893 51.666233,64.601197 c 3.084994,-8.192068 5.309024,-18.228632 5.325919,-24.034753 0.0097,-3.427706 0.726934,-4.946696 1.213644,-2.5711 1.385695,6.763812 -0.914186,19.701863 -5.521007,31.058264 -2.764794,6.815634 -4.140283,9.490508 -7.991744,15.541337 C 37.34433,96.14012 27.16072,105.74724 18.967455,108.86414 15.258376,110.27513 10.060713,110.44461 7.6911889,109.23135 5.2021927,107.95729 2.3000413,104.55042 1.2673137,101.69024 -4.125572,86.754509 8.5696805,53.140846 26.540162,34.77426 37.004497,24.079282 48.216696,17.83771 56.984477,17.826592 c 14.392283,-0.01814 19.845342,12.662432 15.294216,35.56554 -2.057149,10.352537 -4.973071,18.563571 -11.952772,33.658469 -2.342199,5.065505 -4.170626,9.318192 -4.063144,9.450454 0.236362,0.290597 0.09406,0.495116 9.714333,-13.863368 14.374747,-21.453085 19.503147,-28.835712 26.048914,-37.498579 5.091206,-6.737892 7.132247,-8.997958 9.298346,-10.296296 2.45067,-1.468881 2.94832,-1.575661 4.25482,-0.912736 2.00805,1.018973 2.78312,3.905273 2.01184,7.49145 -1.25361,5.828532 -11.248135,27.411633 -22.693448,49.006378 -7.608425,14.355406 -9.982334,19.101846 -9.716568,19.427416 0.271433,0.33258 10.28909,-12.713745 26.687266,-34.755577 25.81215,-34.69574 37.60504,-47.590153 50.0103,-54.681432 9.84418,-5.627273 19.87336,-4.707506 23.1404,2.122206 1.89595,3.963433 1.47409,8.874441 -0.97643,11.365947 -0.68897,0.700524 -0.78481,0.512596 -0.78481,-1.539347 0,-6.25436 -3.6067,-10.093021 -9.483,-10.093021 -13.82209,0 -30.84249,15.821732 -59.43876,55.25275 C 93.818175,92.029819 81.237238,108.22316 74.854508,115.47355 69.078256,122.03502 60.505972,127.89011 57.743384,127.16089 56.781819,126.90709 67.203736,106.71462 81.61421,80.91092 89.907966,66.059932 92.947372,60.015599 97.301054,49.715145 100.27104,42.688467 102.59693,36.811827 102.46973,36.655977 101.75806,35.78415 93.016647,46.789839 87.067859,56.047264 70.355738,82.054418 45.166307,115.2239 35.183279,124.36901 c -5.778442,5.2934 -12.278873,9.56937 -12.278907,8.07699 z"
       id="path6718" /><path
       style="fill:#191818;stroke:none;stroke-width:0.913463"
       d="m 91.115839,97.19056 h -0.825313 c -0.164191,24.32116 -11.931967,46.47763 -27.234397,61.00257 -4.979774,4.7267 -19.890769,16.52685 -24.154852,4.61046 -2.447448,-6.83986 0.05013,-16.5481 1.875367,-23.14833 5.372428,-19.43064 16.818566,-37.82999 30.532317,-49.50232 5.676305,-4.83193 15.101077,-10.843172 22.270309,-7.518278 10.47206,4.856565 6.317557,24.312658 3.854898,33.766108 -5.133252,19.70465 -13.410855,38.50133 -24.029795,54.59749 -5.676312,8.60517 -13.325878,15.48545 -18.601104,24.26555 10.026389,-3.54581 19.168081,-14.42689 26.409116,-23.2555 11.867602,-14.46834 22.787785,-29.73641 33.495035,-45.49688 6.50571,-9.57579 12.59797,-21.0817 20.9738,-28.30979 l -10.68745,25.27658 -21.97652,39.43153 -13.552007,26.28767 c 11.435967,-0.72694 21.323717,-14.99913 28.884997,-24.26554 18.85114,-23.10282 34.4152,-50.11543 56.11936,-69.606739 6.21601,-5.582099 13.56026,-10.968426 21.45742,-11.52027 7.4713,-0.522057 11.62496,4.420374 9.90343,13.385689 5.37752,-3.545974 5.18688,-13.157701 -0.0459,-17.097605 -5.18365,-3.903851 -13.63122,-2.522208 -18.93617,0.250201 -12.46923,6.517328 -22.74074,18.419598 -32.18612,29.991234 -15.97833,19.57521 -30.21862,41.06538 -46.21596,60.66384 9.33316,-18.52571 19.66407,-36.18699 27.84679,-55.60854 1.71907,-4.08166 8.33453,-16.466182 3.2516,-20.149494 -4.8601,-3.521843 -11.82137,7.539504 -14.5605,11.049924 -12.6087,16.15985 -23.49833,34.70681 -35.519442,51.56428 4.724748,-10.39677 9.827492,-20.16062 13.360552,-31.34299 4.79572,-15.17708 10.17245,-43.287319 -8.408843,-47.41943 -2.210107,-0.491632 -4.370731,-0.644462 -6.602291,-0.309034 -3.68163,0.55385 -7.300468,1.996558 -10.728702,3.699353 -16.811869,8.349987 -30.172076,26.486951 -38.161739,46.051071 -4.161528,10.18949 -10.063778,29.59484 -2.100835,39.204 7.202003,8.69212 19.367214,2.04336 26.232744,-3.85922 12.417237,-10.67683 23.372077,-28.33305 27.329321,-46.46648 1.450821,-6.64977 2.942157,-13.67163 0.730346,-20.221305 m -1.650784,60.663915 -1.650582,2.02213 1.650582,-2.02213 m 18.981553,13.14382 -0.82527,1.01107 z"
       id="path2860"
       sodipodi:nodetypes="ccscsccccccccccccccccssccscccsscccccccccccc" /></g></svg>
