<?xml version="1.0" encoding="UTF-8" standalone="no"?>
<!-- Created with Inkscape (http://www.inkscape.org/) -->

<svg
   width="16"
   height="16"
   viewBox="0 0 4.2333333 4.2333332"
   version="1.1"
   id="svg5"
   xml:space="preserve"
   inkscape:version="1.2.1 (9c6d41e4, 2022-07-14)"
   sodipodi:docname="WeddingWise-favicoc-16x16px.svg"
   xmlns:inkscape="http://www.inkscape.org/namespaces/inkscape"
   xmlns:sodipodi="http://sodipodi.sourceforge.net/DTD/sodipodi-0.dtd"
   xmlns="http://www.w3.org/2000/svg"
   xmlns:svg="http://www.w3.org/2000/svg"><sodipodi:namedview
     id="namedview7"
     pagecolor="#505050"
     bordercolor="#eeeeee"
     borderopacity="1"
     inkscape:showpageshadow="0"
     inkscape:pageopacity="0"
     inkscape:pagecheckerboard="0"
     inkscape:deskcolor="#505050"
     inkscape:document-units="mm"
     showgrid="false"
     showborder="true"
     borderlayer="false"
     inkscape:zoom="23.757288"
     inkscape:cx="6.903145"
     inkscape:cy="9.2603164"
     inkscape:window-width="1440"
     inkscape:window-height="900"
     inkscape:window-x="0"
     inkscape:window-y="0"
     inkscape:window-maximized="0"
     inkscape:current-layer="layer1" /><defs
     id="defs2" /><g
     inkscape:label="Layer 1"
     inkscape:groupmode="layer"
     id="layer1"><path
       style="fill:#d69e75;fill-opacity:1;stroke-width:0.210673;stroke-linecap:square"
       d="m 0.47519705,2.6813685 c 0,-0.00385 0.078278,-0.1051804 0.17395079,-0.2251908 C 0.88399806,2.1615848 1.0061521,1.9542264 1.1454907,1.6136291 1.3634313,1.0808982 1.4254015,0.6440207 1.3033445,0.5007931 1.0770457,0.23524272 0.4926531,0.71769498 0.23294552,1.3844734 0.13280666,1.6415726 0.08777818,1.8724252 0.11195458,2.0047755 0.14453247,2.1831218 0.25589274,2.2134547 0.45162029,2.0972952 0.6736278,1.9655404 0.93860316,1.6222596 1.0532103,1.3179241 1.1152079,1.153292 1.1599032,0.95159202 1.1602428,0.83490919 1.1604409,0.76602425 1.1748516,0.73549781 1.1846328,0.78323903 1.2124804,0.91916811 1.1662608,1.1791779 1.0736798,1.407402 1.018117,1.5443725 0.99047452,1.5981282 0.91307354,1.7197288 0.76538992,1.9517467 0.56073482,2.1448163 0.3960787,2.2074553 0.32153912,2.2358113 0.2170842,2.2392171 0.169465,2.2148348 0.11944484,2.1892307 0.0611217,2.1207644 0.04036747,2.0632847 -0.06801076,1.7631286 0.18711963,1.0876109 0.54826376,0.71850645 0.75856048,0.50357462 0.98388668,0.37814075 1.1600885,0.37791732 1.4493233,0.37755283 1.5589109,0.63238811 1.467449,1.0926609 1.4261075,1.3007108 1.3675076,1.465724 1.2272399,1.7690789 c -0.04707,0.1017992 -0.083815,0.1872633 -0.081655,0.1899213 0.00475,0.00584 0.00189,0.00995 0.1952242,-0.2786055 C 1.6296915,1.2492624 1.7327545,1.1008973 1.8643016,0.9268038 1.9666172,0.79139563 2.007635,0.74597617 2.051166,0.7198841 2.100416,0.6903647 2.110417,0.6882188 2.136673,0.7015413 2.177028,0.7220191 2.192604,0.7800237 2.177104,0.85209336 2.1519108,0.9692266 1.9510558,1.4029718 1.7210448,1.836951 1.5681419,2.1254447 1.5204346,2.2208316 1.5257756,2.2273745 1.5312306,2.2340582 1.7325505,1.9718724 2.0620968,1.5289083 2.5808311,0.83164467 2.8178272,0.57251188 3.0671298,0.43000185 3.2649636,0.31691324 3.466515,0.33539735 3.5321713,0.4726508 c 0.038102,0.0796512 0.029624,0.17834537 -0.019623,0.22841596 -0.013846,0.0140781 -0.015772,0.0103014 -0.015772,-0.0309355 0,-0.12569086 -0.072482,-0.2028346 -0.1905751,-0.2028346 -0.2777759,0 -0.6198268,0.31796175 -1.1945122,1.11038794 C 1.9003177,1.8691439 1.6474846,2.1945736 1.5192139,2.3402813 1.4031314,2.4721439 1.2308583,2.5898107 1.1753399,2.575156 1.1560158,2.5700552 1.3654601,2.1642574 1.6550605,1.6456927 1.8217361,1.3472396 1.8828175,1.2257695 1.9703114,1.0187662 2.0299978,0.87755447 2.0767401,0.75945445 2.0741839,0.75632243 2.0598818,0.73880174 1.8842098,0.95997775 1.7646597,1.1460198 1.4288043,1.6686731 0.92258444,2.3352643 0.72196036,2.519049 0.60583377,2.6254279 0.4751977,2.71136 0.47519705,2.6813685 Z"
       id="path6718" /><path
       style="fill:#191818;stroke:none;stroke-width:0.0183574"
       d="M 1.84601,1.9728568 H 1.8294242 C 1.8261245,2.4616275 1.5896332,2.9068953 1.2821076,3.198796 1.1820315,3.2937864 0.88237236,3.5309283 0.79667915,3.2914503 0.74749396,3.1539928 0.79768685,2.958891 0.83436752,2.8262494 0.94233464,2.4357613 1.1723621,2.0659985 1.4479608,1.8314252 c 0.114074,-0.097105 0.303479,-0.21791 0.4475558,-0.1510912 0.2104518,0.0976 0.1269609,0.4885997 0.07747,0.6785812 C 1.869826,2.7549101 1.703475,3.1326579 1.4900713,3.4561346 1.3759972,3.6290686 1.2222675,3.7673383 1.1162539,3.9437877 1.3177494,3.8725292 1.5014655,3.6538575 1.6469852,3.4764331 1.8854827,3.1856698 2.1049402,2.8788348 2.3201187,2.5621042 2.4508609,2.3696642 2.5732942,2.1384354 2.7416191,1.9931759 L 2.5268386,2.5011474 2.085187,3.2935837 1.8128389,3.8218743 C 2.042662,3.8072654 2.2413714,3.520444 2.3933266,3.3342215 2.7721691,2.8699351 3.0849525,2.3270759 3.5211306,1.9353684 3.6460509,1.8231876 3.7936446,1.7149412 3.95235,1.7038511 4.1024971,1.6933595 4.1859712,1.7926852 4.1513743,1.9728568 4.2594441,1.901595 4.255613,1.7084328 4.1504522,1.6292545 4.0462788,1.5508007 3.876512,1.5785669 3.7699012,1.6342829 3.519313,1.7652584 3.3128914,2.0044526 3.1230722,2.2370021 2.8019633,2.6303957 2.5157829,3.0622733 2.1942922,3.4561343 2.3818563,3.0838319 2.5894716,2.7289017 2.7539157,2.3385962 2.7884629,2.256569 2.9214108,2.0076832 2.8192617,1.9336614 2.7215904,1.8628847 2.5816931,2.0851792 2.5266462,2.1557265 2.2732553,2.4804832 2.0544116,2.8532124 1.812829,3.191989 1.9077801,2.9830501 2.0103275,2.7868308 2.0813296,2.5621041 2.1777069,2.2570975 2.2857605,1.6921796 1.9123412,1.6091386 1.8679256,1.5992585 1.8245047,1.5961871 1.7796582,1.6029279 1.7056701,1.6140583 1.6329441,1.6430517 1.5640485,1.677272 1.2261885,1.8450776 0.95769483,2.2095676 0.7971304,2.6027381 0.71349812,2.8075115 0.59488348,3.1974914 0.7549109,3.3906021 0.89964613,3.5652835 1.1441245,3.4316664 1.2820978,3.3130452 1.5316411,3.098478 1.7517952,2.7436495 1.831322,2.3792307 1.8604785,2.2455936 1.8904491,2.1044786 1.8459994,1.9728529 m -0.033175,1.2191334 -0.033171,0.040638 0.033171,-0.040638 m 0.3814631,0.2641452 -0.016585,0.020319 z"
       id="path2860"
       sodipodi:nodetypes="ccscsccccccccccccccccssccscccsscccccccccccc" /></g></svg>
